<?xml version="1.0" standalone="no"?>
<!DOCTYPE svg PUBLIC "-//W3C//DTD SVG 20010904//EN"
 "http://www.w3.org/TR/2001/REC-SVG-20010904/DTD/svg10.dtd">
<svg version="1.0" xmlns="http://www.w3.org/2000/svg"
 width="735.000000pt" height="752.000000pt" viewBox="0 0 735.000000 752.000000"
 preserveAspectRatio="xMidYMid meet">

<g transform="translate(0.000000,752.000000) scale(0.100000,-0.100000)"
fill="#000000" stroke="none">
<path d="M69 6959 c-27 -25 -32 -38 -36 -92 -10 -126 63 -460 162 -737 224
-630 580 -1235 1049 -1784 152 -178 462 -489 631 -635 495 -424 1036 -749
1668 -1001 81 -33 169 -66 195 -74 26 -8 65 -22 87 -30 22 -8 110 -34 195 -59
439 -127 829 -190 1180 -191 211 -1 258 9 318 65 23 22 42 42 42 45 0 3 -15
25 -32 49 -48 63 -82 77 -433 170 -564 150 -787 224 -1195 393 -368 153 -879
432 -1169 640 -36 26 -84 59 -106 74 -64 44 -346 267 -426 338 -398 352 -665
640 -970 1045 -262 347 -513 764 -731 1215 -203 419 -259 528 -288 555 -16 16
-46 31 -70 35 -36 7 -44 4 -71 -21z"/>
<path d="M4591 4273 c-22 -5 -23 -7 -16 -71 5 -44 15 -79 32 -106 54 -84 225
-266 438 -465 44 -41 107 -100 140 -131 33 -31 152 -136 265 -234 113 -98 219
-190 235 -205 62 -54 390 -328 450 -376 59 -47 227 -183 395 -320 41 -34 135
-110 208 -170 139 -112 146 -125 73 -125 -52 0 -354 -39 -481 -61 -63 -11
-142 -25 -175 -30 -97 -16 -498 -117 -655 -165 -224 -69 -595 -201 -725 -258
-16 -8 -67 -30 -111 -50 -45 -20 -84 -36 -87 -36 -6 0 -228 -103 -271 -126
-17 -8 -86 -45 -155 -81 -516 -272 -780 -425 -876 -511 -50 -44 -57 -57 -65
-110 -6 -39 -4 -45 20 -62 54 -38 77 -42 164 -24 101 20 522 161 641 214 11 5
101 41 200 80 99 39 189 75 200 80 11 5 70 30 130 55 61 26 133 57 160 70 28
13 88 39 135 60 47 20 99 43 116 50 595 267 1265 500 1764 613 211 49 517 102
580 102 6 0 10 26 10 59 l0 59 -62 57 c-35 31 -101 93 -148 138 -47 45 -126
120 -175 167 -50 47 -142 135 -205 195 -181 173 -414 391 -550 515 -69 63
-156 143 -195 180 -38 36 -106 97 -150 135 -43 39 -120 106 -170 150 -182 162
-403 349 -515 437 -19 15 -66 52 -105 83 -79 63 -242 173 -303 204 -39 20
-100 25 -161 14z"/>
</g>
</svg>
